<?xml version="1.0" encoding="iso-8859-1"?>
<!-- Uploaded to: SVG Repo, www.svgrepo.com, Generator: SVG Repo Mixer Tools -->
<svg height="800px" width="800px" version="1.1" id="Layer_1" xmlns="http://www.w3.org/2000/svg" xmlns:xlink="http://www.w3.org/1999/xlink" 
	 viewBox="0 0 512.003 512.003" xml:space="preserve">
<path style="fill:#AA8B65;" d="M431.674,495.515c14.2,7.887,22.315,12.394,22.315,12.394c13.71,7.634,31.313,4.282,41.154-8.537
	c10.824-14.099,8.17-34.302-5.929-45.127l-0.848-0.652c0,0-6.91-5.306-19.004-14.59c-3.044-2.274-6.305-4.958-9.863-7.859
	c-3.556-2.893-7.402-6.021-11.512-9.363c-4.146-3.279-8.363-7.041-12.878-10.889c-2.249-1.933-4.556-3.917-6.918-5.947
	c-2.352-2.041-4.801-4.064-7.189-6.284c-4.816-4.367-9.834-8.917-15.027-13.626c-2.618-2.317-5.169-4.814-7.791-7.307
	c-2.615-2.495-5.27-5.029-7.96-7.597c-1.344-1.283-2.698-2.573-4.06-3.873c-0.681-0.65-1.362-1.302-2.048-1.956
	c-0.67-0.672-1.341-1.346-2.015-2.022c-2.693-2.702-5.419-5.435-8.176-8.199c-2.749-2.761-5.529-5.553-8.334-8.371
	c-2.742-2.885-5.51-5.796-8.3-8.732c-2.787-2.931-5.598-5.885-8.429-8.861c-2.764-3.039-5.55-6.102-8.351-9.182
	c-2.795-3.077-5.607-6.173-8.433-9.285c-2.757-3.175-5.53-6.366-8.312-9.569c-2.772-3.209-5.586-6.394-8.345-9.647
	c-2.728-3.282-5.463-6.573-8.203-9.87c-5.534-6.533-10.85-13.307-16.206-20.019l-4.014-5.034l-3.913-5.116
	c-2.605-3.405-5.207-6.806-7.803-10.201c-2.616-3.372-5.08-6.865-7.616-10.272c-2.507-3.431-5.043-6.818-7.501-10.245
	c-3.118-4.39-6.202-8.762-9.243-13.119c25.454-30.408,79.302-111.564,40.718-127.452c-45.948-18.919-55.935-0.927-58.072,13.073
	c-2.988,19.572-11.584,41.144-19.529,57.987c-2.123-3.473-4.205-6.91-6.242-10.297c-3.687-6.3-7.34-12.377-10.677-18.354
	c-1.681-2.981-3.371-5.889-4.963-8.776c-1.585-2.887-3.139-5.719-4.663-8.494c-6.028-11.112-11.364-21.348-15.847-30.44
	c-4.536-9.082-8.237-17.007-11.167-23.462c-2.961-6.481-5.016-11.425-6.363-14.672c-0.314-0.786-0.592-1.48-0.832-2.08
	c-0.057-0.145-0.113-0.283-0.164-0.416c-0.031-0.094-0.062-0.184-0.091-0.27c-0.059-0.17-0.111-0.326-0.157-0.464
	c-0.047-0.138-0.089-0.258-0.124-0.363c-0.023-0.077-0.126-0.32-0.165-0.423c-0.102-0.257-0.155-0.388-0.155-0.388
	c-1.219-2.993-2.797-6.34-4.437-9.224c-20.402-35.896-56.484-21.742-92.38-1.338C19.714,41.111-2.403,60.036,18,95.932l0.271,0.476
	c0,0,0.345,0.607,1.012,1.782c0.195,0.348,0.416,0.738,0.658,1.17c0.122,0.215,0.249,0.441,0.382,0.678
	c0.116,0.195,0.235,0.401,0.36,0.613c0.489,0.829,1.056,1.789,1.699,2.875c2.541,4.211,6.191,10.208,10.893,17.434
	c4.707,7.264,10.447,15.907,17.207,25.552c6.726,9.688,14.489,20.368,23.117,31.833c2.169,2.852,4.384,5.763,6.639,8.73
	c2.26,2.961,4.622,5.923,6.99,8.962c4.715,6.096,9.761,12.241,14.885,18.599c10.382,12.603,21.446,25.744,33.283,38.952
	c11.729,13.296,24.287,26.616,37.147,39.988c3.231,3.329,6.538,6.614,9.82,9.936c3.309,3.297,6.542,6.671,9.931,9.92
	c3.365,3.264,6.738,6.533,10.112,9.807l5.061,4.903l5.161,4.812c3.284,3.058,6.554,6.122,9.84,9.162l-64.809-6.627
	c-8.362-0.855-15.471,6.045-14.865,14.43l1.937,26.803c0.531,7.341,6.834,12.909,14.183,12.532l111.051-5.709
	c1.806,1.479,3.621,2.966,5.417,4.436c3.499,2.856,6.977,5.695,10.43,8.514c3.514,2.745,7.003,5.47,10.464,8.173
	c3.456,2.697,6.884,5.37,10.278,8.019c3.455,2.574,6.877,5.123,10.261,7.645c3.384,2.514,6.732,5,10.039,7.456
	c0.826,0.613,1.65,1.224,2.471,1.835c0.837,0.591,1.67,1.182,2.501,1.769c1.662,1.173,3.315,2.339,4.955,3.498
	c3.278,2.312,6.512,4.593,9.696,6.84c3.188,2.239,6.292,4.48,9.457,6.546c6.271,4.188,12.329,8.233,18.145,12.118
	c2.88,1.969,5.815,3.749,8.635,5.546c2.828,1.783,5.591,3.525,8.284,5.224c5.398,3.374,10.441,6.668,15.363,9.506
	c4.875,2.891,9.437,5.597,13.657,8.099"/>
<g>
	<path style="fill:#836948;" d="M169.51,79.127c0.316,0.038,0.627,0.056,0.936,0.056c1.236,0,2.416-0.295,3.471-0.821
		c-0.776-1.544-1.54-3.069-2.271-4.553c-1.92-3.846-3.683-7.469-5.309-10.875c-58.415-8.894-86.759-47.189-90.598-52.762
		c-4.621,2.155-9.289,4.557-13.969,7.107c0.087,0.162,0.169,0.326,0.268,0.484C63.371,19.903,95.537,70.294,169.51,79.127z"/>
	<path style="fill:#836948;" d="M70.067,77.855c21.109,15.529,54.113,32.643,97.017,32.643c6.407,0,13.037-0.382,19.88-1.208
		c1.014-0.123,1.957-0.44,2.802-0.902c-0.765-1.394-1.523-2.774-2.273-4.14c-1.881-3.469-3.687-6.84-5.429-10.13
		c-36.865,3.736-71.265-5.844-102.29-28.509C55.691,48.016,42.777,28.706,42.65,28.513c-0.008-0.014-0.019-0.025-0.027-0.038
		c-4.654,2.964-8.936,5.947-12.758,9.006C31.917,40.507,45.507,59.786,70.067,77.855z"/>
	<path style="fill:#836948;" d="M430.511,487.529c-22.899-50.031-58.466-101.736-105.717-153.688
		c-37.647-41.395-82.777-83.063-134.135-123.848C103.3,140.618,26.993,97.164,26.234,96.733c-2.495-1.416-5.435-1.298-7.752,0.04
		c0.167,0.295,0.429,0.754,0.804,1.417c0.195,0.348,0.416,0.738,0.658,1.17c0.122,0.215,0.249,0.441,0.382,0.678
		c0.115,0.195,0.235,0.401,0.36,0.613c0.489,0.829,1.056,1.789,1.699,2.875c2.165,3.589,5.142,8.482,8.882,14.318
		c25.115,15.166,84.325,52.455,149.879,104.533C258.09,283.503,359.272,377.69,411.38,483.64c3.015,1.788,5.908,3.504,8.642,5.124
		c3.633,2.158,6.988,4.157,10.144,5.912C431.385,492.565,431.603,489.916,430.511,487.529z"/>
	<path style="fill:#836948;" d="M388.895,461.163c-73.535-95.098-149.513-162.644-200.301-202.565
		c-55.158-43.355-92.41-63.907-93.969-64.761c-2.826-1.547-6.186-1.164-8.568,0.705c0.393,0.5,0.78,0.992,1.173,1.497
		c4.715,6.096,9.761,12.241,14.885,18.599c1.045,1.269,2.103,2.547,3.161,3.827c16.202,10.226,42.237,27.685,74.006,52.676
		c46.671,36.714,114.951,97.147,182.742,181.2c4.12,2.751,8.15,5.442,12.06,8.054c2.88,1.969,5.815,3.749,8.635,5.546
		c2.245,1.416,4.437,2.797,6.598,4.16C391.016,467.403,390.958,463.828,388.895,461.163z"/>
	<path style="fill:#836948;" d="M291.702,142.95c0.25,0.153,0.508,0.278,0.767,0.4c2.388-4.843,4.539-9.662,6.367-14.365
		c-31.235-19.67-51.452-55.159-51.654-55.52c-0.09-0.159-0.189-0.307-0.288-0.458c-5.911,2.454-9.32,6.815-11.273,11.556
		C241.894,94.742,262.046,124.756,291.702,142.95z"/>
	<path style="fill:#836948;" d="M274.582,174.324c2.802-4.288,5.578-8.731,8.248-13.252c-0.015-0.008-0.027-0.02-0.042-0.028
		c-35.076-20.988-45.456-53.426-45.595-53.873c-0.822-2.699-2.976-4.621-5.524-5.28c-1.483,6.391-3.425,12.868-5.637,19.224
		C232.055,133.955,246.151,157.245,274.582,174.324z"/>
	<path style="fill:#836948;" d="M220.438,172.507c-3.89,2.575-8.525,7.649-8.525,17.191c0,9.201,6.661,26.096,58.607,75.483
		c27.951,26.573,56.276,50.231,56.558,50.466c1.461,1.218,3.234,1.812,4.997,1.812c1.897,0,3.778-0.696,5.249-2.034
		c-1.746-1.921-3.487-3.839-5.245-5.773c-2.757-3.175-5.53-6.366-8.312-9.569c-2.772-3.209-5.586-6.394-8.345-9.647
		c-2.728-3.282-5.463-6.573-8.203-9.87c-3.029-3.575-5.988-7.223-8.929-10.893c-5.518-5.025-11.27-10.351-17.01-15.809
		c-51.161-48.64-53.752-61.985-53.752-64.167c0-3.156,1.031-3.841,1.528-4.17c5.502-3.647,22.895,0.398,34.363,4.955
		c2.958-4.054,6.012-8.411,9.063-12.977c-0.419-0.284-0.868-0.534-1.352-0.739C265.314,174.301,235.547,162.505,220.438,172.507z"/>
	<path style="fill:#836948;" d="M474.927,490.124c2.47-16.238-5.055-37.618-22.367-63.542c-0.542-0.813-1.086-1.613-1.63-2.408
		c-0.965-0.785-1.944-1.583-2.942-2.392c-4.146-3.279-8.363-7.041-12.878-10.889c-2.249-1.933-4.556-3.917-6.918-5.947
		c-2.352-2.041-4.801-4.064-7.189-6.284c-1.893-1.717-3.827-3.47-5.78-5.24c-2.687,2.957-2.723,7.526,0.032,10.525
		c13.6,14.805,48.061,58.726,44.235,83.839c-0.903,5.922-3.895,10.172-9.414,13.371c-1.267,0.733-2.242,1.774-2.904,2.968
		c4.427,2.458,6.819,3.787,6.819,3.787c2.834,1.579,5.836,2.68,8.899,3.332C469.5,505.876,473.626,498.674,474.927,490.124z"/>
	<path style="fill:#836948;" d="M173.292,337.087l-15.633-1.598c-3.783-0.388-7.301,0.823-9.972,3.03
		c1.01,2.392,3.182,4.23,5.934,4.678c0.215,0.035,21.549,4.632,21.549,44.82c0,0.136,0.014,0.266,0.02,0.4l15.591-0.801
		C190.698,360.153,181.973,345.182,173.292,337.087z"/>
	<path style="fill:#836948;" d="M212.414,341.088l-21.519-2.2c-0.279,2.761,0.926,5.587,3.378,7.258
		c0.236,0.16,23.566,16.32,23.566,39.678c0,0.136,0.014,0.267,0.02,0.401l15.583-0.8
		C233.285,365.185,221.308,349.763,212.414,341.088z"/>
</g>
<g style="opacity:0.35;">
	<path style="fill:#564531;" d="M291.616,79.16c-9.517-3.918-17.468-6.234-24.149-7.35c8.133,22.457,15.609,48.513,21.457,78.45
		C305.234,119.699,314.051,88.397,291.616,79.16z"/>
	<path style="fill:#564531;" d="M489.192,454.295l-0.848-0.652c0,0-6.91-5.306-19.004-14.59c-3.044-2.274-6.305-4.958-9.863-7.859
		c-3.556-2.893-7.402-6.021-11.512-9.363c-4.147-3.279-8.363-7.041-12.878-10.889c-2.249-1.933-4.556-3.917-6.918-5.947
		c-2.352-2.041-4.801-4.064-7.189-6.284c-4.816-4.367-9.834-8.917-15.027-13.626c-2.618-2.317-5.169-4.814-7.791-7.307
		c-2.615-2.495-5.27-5.029-7.96-7.597c-1.344-1.283-2.698-2.573-4.06-3.873c-0.681-0.65-1.362-1.301-2.048-1.956
		c-0.67-0.673-1.341-1.346-2.015-2.022c-2.693-2.702-5.419-5.435-8.176-8.199c-2.749-2.761-5.529-5.553-8.334-8.371
		c-2.741-2.885-5.51-5.796-8.301-8.732c-2.786-2.931-5.598-5.885-8.429-8.861c-2.764-3.04-5.55-6.102-8.351-9.182
		c-2.795-3.077-5.607-6.173-8.433-9.285c-2.757-3.175-5.53-6.366-8.312-9.569c-2.772-3.209-5.586-6.394-8.345-9.647
		c-2.728-3.281-5.463-6.573-8.204-9.87c-2.013-2.377-3.992-4.791-5.96-7.218c0.622,39.004-1.456,82.107-7.177,129.601
		c0.729,0.569,1.472,1.149,2.198,1.718c3.456,2.697,6.884,5.37,10.278,8.019c3.455,2.574,6.877,5.123,10.261,7.645
		c3.384,2.514,6.732,5,10.039,7.456c0.826,0.613,1.65,1.224,2.471,1.835c0.836,0.591,1.67,1.182,2.501,1.769
		c1.662,1.173,3.314,2.339,4.955,3.498c3.278,2.312,6.512,4.593,9.696,6.839c3.189,2.239,6.292,4.48,9.457,6.546
		c6.271,4.188,12.329,8.233,18.145,12.118c2.88,1.969,5.815,3.749,8.635,5.546c2.828,1.783,5.591,3.525,8.284,5.224
		c5.399,3.374,10.441,6.669,15.363,9.506c4.875,2.891,9.437,5.597,13.657,8.099l11.652,6.748
		c14.2,7.887,22.316,12.394,22.316,12.394c13.711,7.634,31.313,4.282,41.154-8.537C505.945,485.324,503.29,465.119,489.192,454.295z
		"/>
</g>
</svg>